<?xml version="1.0" encoding="utf-8"?>
<!-- Generator: Adobe Illustrator 28.0.0, SVG Export Plug-In . SVG Version: 6.00 Build 0)  -->
<svg version="1.1" id="Layer_1" xmlns="http://www.w3.org/2000/svg" xmlns:xlink="http://www.w3.org/1999/xlink" x="0px" y="0px"
	 viewBox="0 0 376.2 50" style="enable-background:new 0 0 376.2 50;" xml:space="preserve">
<style type="text/css">
	.st0{fill:none;stroke:#5C0022;stroke-miterlimit:10;}
	.st1{fill:#58005C;}
	.st2{fill:#004A80;}
</style>
<path d="M3.9,39.3c-0.3-0.4-0.5-0.8-0.5-1.5V10.5c0-1.9,0.6-3.3,1.7-4.4s2.6-1.6,4.6-1.6h8.4c9.4,0,14.1,3.9,14.1,11.8
	c0,3.6-1.2,6.4-3.6,8.4s-5.8,3-10.3,3H7.1v10c0,0.6-0.2,1.1-0.5,1.5s-0.8,0.5-1.4,0.5C4.7,39.8,4.2,39.6,3.9,39.3z M25.8,22.8
	c1.8-1.3,2.6-3.4,2.6-6.3c0-3.1-0.9-5.3-2.6-6.7s-4.2-2.1-7.5-2.1H9.7C8.9,7.7,8.3,8,7.8,8.5s-0.7,1.2-0.7,2.1v14.1h11.2
	C21.5,24.7,24,24.1,25.8,22.8z"/>
<path d="M40,39.3c-0.3-0.4-0.5-0.8-0.5-1.5V3.7c0-0.6,0.2-1.1,0.5-1.5s0.7-0.5,1.3-0.5c0.6,0,1,0.2,1.3,0.5c0.3,0.4,0.5,0.8,0.5,1.5
	v34.1c0,0.6-0.2,1.1-0.5,1.4c-0.3,0.4-0.8,0.5-1.4,0.5C40.7,39.8,40.3,39.6,40,39.3z"/>
<path d="M53.6,37c-1.8-1.9-2.7-4.4-2.7-7.7V16.5c0-0.6,0.2-1.1,0.5-1.5s0.8-0.5,1.3-0.5c0.6,0,1,0.2,1.3,0.5
	c0.3,0.4,0.5,0.8,0.5,1.5v12.8c0,2.3,0.6,4.2,1.9,5.5c1.3,1.3,3,1.9,5.2,1.9c1.8,0,3.4-0.4,4.8-1.2c1.4-0.8,2.5-1.9,3.2-3.3
	c0.8-1.4,1.2-3.1,1.2-4.9V16.5c0-0.6,0.2-1.1,0.5-1.5s0.8-0.5,1.4-0.5c0.6,0,1,0.2,1.3,0.5c0.3,0.4,0.5,0.8,0.5,1.5v21.3
	c0,0.6-0.2,1.1-0.5,1.5s-0.7,0.5-1.3,0.5s-1.1-0.2-1.4-0.5c-0.3-0.4-0.5-0.8-0.5-1.4V35c-1.2,1.6-2.6,2.8-4.3,3.6
	c-1.6,0.8-3.4,1.3-5.3,1.3C58,39.8,55.5,38.9,53.6,37z"/>
<path d="M98.5,35.5c0,0.3-0.1,0.7-0.4,1.2c-0.7,1-1.7,1.7-2.9,2.3s-2.5,0.9-3.8,0.9c-2.2,0-3.9-0.6-5.2-1.9
	c-1.3-1.3-1.9-3.1-1.9-5.3V18.2h-2.7c-1.3,0-2-0.5-2-1.5c0-0.5,0.2-0.8,0.5-1.1c0.4-0.3,0.8-0.4,1.5-0.4h2.7V6.7
	c0-0.6,0.2-1.1,0.5-1.5s0.8-0.5,1.4-0.5c0.6,0,1,0.2,1.3,0.5S88,6,88,6.7v8.5h6.7c0.6,0,1.1,0.1,1.4,0.4c0.4,0.2,0.5,0.6,0.5,1.1
	c0,1-0.6,1.5-1.9,1.5H88V33c0,2.5,1.2,3.8,3.6,3.8c0.8,0,1.5-0.1,2.1-0.4c0.6-0.3,1.3-0.8,1.9-1.4c0.5-0.5,1-0.8,1.4-0.8
	c0.3,0,0.6,0.1,1,0.4C98.3,34.7,98.5,35.1,98.5,35.5z"/>
<path d="M133.9,39.3c-0.3-0.4-0.5-0.8-0.5-1.5V16.5c0-0.6,0.1-1.1,0.4-1.5c0.3-0.3,0.7-0.5,1.3-0.5s1,0.2,1.3,0.5
	c0.3,0.4,0.5,0.8,0.5,1.5v2.9c1.2-1.6,2.7-2.8,4.4-3.7c1.7-0.8,3.6-1.2,5.7-1.2c3.1,0,5.6,0.9,7.3,2.6c1.7,1.8,2.6,4.3,2.6,7.5v13.1
	c0,0.6-0.2,1.1-0.5,1.5s-0.8,0.5-1.3,0.5c-0.6,0-1-0.2-1.3-0.5c-0.3-0.4-0.4-0.8-0.4-1.5v-13c0-4.7-2.2-7-6.6-7
	c-2.9,0-5.2,0.9-7,2.6c-1.8,1.7-2.6,4-2.6,6.8v10.8c0,0.6-0.2,1.1-0.5,1.4c-0.3,0.4-0.8,0.5-1.4,0.5
	C134.6,39.8,134.2,39.6,133.9,39.3z"/>
<path d="M164.4,8.6c-0.5-0.5-0.8-1.1-0.8-1.8s0.3-1.3,0.8-1.8s1.1-0.7,1.9-0.7c0.7,0,1.4,0.3,1.9,0.8s0.8,1.1,0.8,1.8
	s-0.3,1.2-0.8,1.7s-1.2,0.7-1.9,0.7C165.6,9.3,165,9,164.4,8.6z M165,39.3c-0.3-0.4-0.5-0.8-0.5-1.5V16.5c0-0.6,0.2-1.1,0.5-1.5
	s0.7-0.5,1.3-0.5s1.1,0.2,1.4,0.5c0.3,0.4,0.5,0.8,0.5,1.5v21.3c0,0.6-0.2,1.1-0.5,1.5s-0.8,0.5-1.4,0.5S165.3,39.6,165,39.3z"/>
<path d="M178.6,37c-1.8-1.9-2.7-4.4-2.7-7.7V16.5c0-0.6,0.2-1.1,0.5-1.5s0.8-0.5,1.3-0.5s1,0.2,1.3,0.5c0.3,0.4,0.5,0.8,0.5,1.5
	v12.8c0,2.3,0.6,4.2,1.9,5.5s3,1.9,5.2,1.9c1.8,0,3.4-0.4,4.8-1.2s2.5-1.9,3.2-3.3s1.2-3.1,1.2-4.9V16.5c0-0.6,0.2-1.1,0.5-1.5
	s0.8-0.5,1.4-0.5s1,0.2,1.3,0.5c0.3,0.4,0.5,0.8,0.5,1.5v21.3c0,0.6-0.2,1.1-0.5,1.5s-0.7,0.5-1.3,0.5c-0.6,0-1.1-0.2-1.4-0.5
	c-0.3-0.4-0.5-0.8-0.5-1.4V35c-1.2,1.6-2.6,2.8-4.3,3.6c-1.6,0.8-3.4,1.3-5.3,1.3C182.9,39.8,180.4,38.9,178.6,37z"/>
<path d="M206.7,39.3c-0.3-0.4-0.5-0.8-0.5-1.5V16.5c0-0.6,0.2-1.1,0.5-1.5c0.3-0.3,0.7-0.5,1.3-0.5c0.6,0,1.1,0.2,1.4,0.5
	c0.3,0.4,0.5,0.8,0.5,1.4v2.8c0.9-1.5,2-2.7,3.4-3.5c1.4-0.9,2.9-1.3,4.4-1.3c1.6,0,2.9,0.4,4.1,1.3c1.2,0.8,2.1,2,2.6,3.5
	c1.2-1.5,2.4-2.7,3.8-3.6c1.4-0.8,2.9-1.2,4.4-1.2c2.6,0,4.6,0.8,5.9,2.4s2,4,2,7.1v13.8c0,0.6-0.2,1.1-0.5,1.5s-0.8,0.5-1.3,0.5
	c-1.2,0-1.8-0.7-1.8-2V23.8c0-2.1-0.4-3.7-1.1-4.7s-1.9-1.6-3.6-1.6c-1.5,0-2.8,0.4-3.9,1.3c-1.2,0.9-2.1,2.1-2.8,3.8v15.1
	c0,0.6-0.2,1.1-0.5,1.5s-0.8,0.5-1.3,0.5s-1-0.2-1.3-0.5c-0.3-0.4-0.5-0.8-0.5-1.5v-13c0-2.3-0.4-4-1.2-5.2c-0.8-1.2-2-1.8-3.4-1.8
	s-2.7,0.4-3.8,1.2c-1.1,0.8-2,1.8-2.6,3.2s-1,2.9-1,4.6v11.2c0,0.6-0.2,1.1-0.5,1.4c-0.3,0.4-0.8,0.5-1.4,0.5
	C207.5,39.8,207,39.6,206.7,39.3z"/>
<path d="M261.4,39.3c-0.3-0.4-0.5-0.8-0.5-1.5V10.5c0-1.9,0.6-3.3,1.7-4.4c1.1-1.1,2.6-1.6,4.6-1.6h15.4c1.3,0,1.9,0.5,1.9,1.6
	c0,0.5-0.2,0.8-0.5,1.1s-0.8,0.4-1.4,0.4h-15.3c-0.8,0-1.4,0.3-1.9,0.8s-0.7,1.2-0.7,2.1v10h14.2c1.3,0,1.9,0.5,1.9,1.6
	c0,0.5-0.2,0.9-0.5,1.1c-0.4,0.3-0.8,0.4-1.4,0.4h-14.2v14.2c0,0.6-0.2,1.1-0.5,1.5s-0.8,0.5-1.4,0.5
	C262.2,39.8,261.8,39.6,261.4,39.3z"/>
<path d="M288.3,37.7c-1.8-1.4-2.8-3.4-2.8-5.9s1-4.4,2.9-5.9s4.6-2.2,7.9-2.2c1.9,0,3.7,0.3,5.2,0.8s2.7,1.2,3.5,2.1v-3.2
	c0-1.9-0.6-3.3-1.9-4.3c-1.2-1-3-1.5-5.4-1.5c-3.1,0-5.7,0.7-8,2.2c-0.6,0.3-1,0.5-1.4,0.5c-0.3,0-0.7-0.1-1-0.4
	c-0.4-0.3-0.5-0.7-0.5-1.1c0-0.5,0.2-0.9,0.6-1.2c1.2-0.9,2.7-1.7,4.5-2.2s3.7-0.8,5.6-0.8c3.5,0,6.2,0.8,8.2,2.4s2.9,3.8,2.9,6.7
	V38c0,1.3-0.6,1.9-1.8,1.9c-0.5,0-1-0.2-1.3-0.5c-0.3-0.4-0.5-0.8-0.5-1.4v-1.8c-2,2.4-5.1,3.7-9.2,3.7
	C292.6,39.8,290.1,39.1,288.3,37.7z M302.6,35.3c1.6-1,2.4-2.2,2.4-3.8c0-1.5-0.7-2.8-2.3-3.6c-1.5-0.8-3.6-1.3-6.4-1.3
	c-2.3,0-4.1,0.4-5.4,1.3c-1.3,0.9-1.9,2.1-1.9,3.8c0,1.6,0.6,2.9,1.8,3.7c1.2,0.9,3,1.3,5.3,1.3C298.9,36.8,301,36.3,302.6,35.3z"/>
<path d="M315.9,39.3c-0.3-0.4-0.5-0.8-0.5-1.5V16.5c0-0.6,0.1-1.1,0.4-1.5s0.7-0.5,1.3-0.5c0.6,0,1,0.2,1.3,0.5
	c0.3,0.4,0.5,0.8,0.5,1.5v3c2.2-3,5.4-4.5,9.3-4.5h1.2c0.6,0,1.1,0.1,1.5,0.4c0.4,0.3,0.5,0.7,0.5,1.2s-0.2,0.9-0.5,1.1
	c-0.4,0.3-0.9,0.4-1.5,0.4H328c-2.8,0-5,0.8-6.7,2.4c-1.6,1.6-2.5,3.8-2.5,6.5v10.8c0,0.6-0.2,1.1-0.5,1.4c-0.3,0.4-0.8,0.5-1.4,0.5
	C316.6,39.8,316.2,39.6,315.9,39.3z"/>
<path d="M337.2,39.3c-0.3-0.4-0.5-0.8-0.5-1.5V16.5c0-0.6,0.2-1.1,0.5-1.5s0.7-0.5,1.3-0.5c0.6,0,1.1,0.2,1.4,0.5
	c0.3,0.4,0.5,0.8,0.5,1.4v2.8c0.9-1.5,2-2.7,3.4-3.5c1.4-0.9,2.9-1.3,4.4-1.3s2.9,0.4,4.1,1.3c1.2,0.8,2.1,2,2.6,3.5
	c1.2-1.5,2.4-2.7,3.8-3.6c1.4-0.8,2.9-1.2,4.4-1.2c2.6,0,4.6,0.8,5.9,2.4c1.3,1.6,2,4,2,7.1v13.8c0,0.6-0.2,1.1-0.5,1.5
	c-0.3,0.3-0.8,0.5-1.3,0.5c-1.2,0-1.8-0.7-1.8-2V23.8c0-2.1-0.4-3.7-1.1-4.7s-1.9-1.6-3.6-1.6c-1.5,0-2.8,0.4-3.9,1.3
	s-2.1,2.1-2.8,3.8v15.1c0,0.6-0.2,1.1-0.5,1.5c-0.3,0.3-0.8,0.5-1.3,0.5c-0.6,0-1-0.2-1.3-0.5c-0.3-0.4-0.5-0.8-0.5-1.5v-13
	c0-2.3-0.4-4-1.2-5.2c-0.8-1.2-2-1.8-3.4-1.8s-2.7,0.4-3.8,1.2c-1.1,0.8-2,1.8-2.6,3.2s-1,2.9-1,4.6v11.2c0,0.6-0.2,1.1-0.5,1.4
	c-0.3,0.4-0.8,0.5-1.4,0.5C337.9,39.8,337.5,39.6,337.2,39.3z"/>
<path class="st0" d="M111.8,168.2"/>
<path class="st1" d="M218.1,61.2"/>
<g>
	<circle class="st2" cx="116" cy="26.6" r="15.3"/>
	<circle cx="116" cy="26.6" r="2.8"/>
	<path d="M121.8,15.6l-2.9,7.3c0.5,0.3,1,0.6,1.4,1.2c0.3,0.5,0.4,1.1,0.3,1.8l7.8,1.1c0.1,0,0.3-0.1,0.4-0.2
		c0.3-1.1,0.3-2.3,0.1-3.4c-0.2-1.2-0.6-2.4-1.2-3.5l-0.1-0.1c-1.2-2.1-3.3-3.7-5.4-4.3C122,15.4,121.8,15.5,121.8,15.6z"/>
	<path d="M103.5,27l7.8-1.1c0-0.6,0-1.2,0.3-1.8c0.3-0.5,0.8-0.9,1.4-1.2l-2.9-7.3c0-0.1-0.2-0.2-0.4-0.2c-1.1,0.3-2.1,0.9-3,1.6
		s-1.8,1.7-2.4,2.8l-0.1,0.1c-1.2,2.1-1.5,4.7-1,6.8C103.2,27,103.4,27.1,103.5,27z"/>
	<path d="M122.6,37.2l-4.9-6.2c-0.5,0.3-1,0.6-1.7,0.6c-0.6,0-1.2-0.2-1.7-0.6l-4.9,6.2c-0.1,0.1-0.1,0.3,0,0.5
		c0.8,0.8,1.8,1.4,2.9,1.8c1.1,0.4,2.4,0.7,3.6,0.7h0.1c2.4,0,4.8-1,6.4-2.5C122.7,37.5,122.7,37.3,122.6,37.2z"/>
</g>
</svg>
