<?xml version="1.0" encoding="utf-8"?>
<!-- Generator: Adobe Illustrator 28.0.0, SVG Export Plug-In . SVG Version: 6.00 Build 0)  -->
<svg version="1.1" id="Layer_1" xmlns="http://www.w3.org/2000/svg" xmlns:xlink="http://www.w3.org/1999/xlink" x="0px" y="0px"
	 viewBox="0 0 187.3 343.6" style="enable-background:new 0 0 187.3 343.6;" xml:space="preserve">
<style type="text/css">
	.st0{fill:#A020F0;}
	.st1{fill:#FFFFFF;}
</style>
<rect x="70.6" y="100.3" width="41.1" height="188.6"/>
<path d="M162.8,148.8L108.9,180c-5.4,3.1-12.3,1.3-15.4-4.1l-0.7-1.3c-3.1-5.4-1.3-12.3,4.1-15.4l53.9-31.1
	c5.4-3.1,12.3-1.3,15.4,4.1l0.7,1.3C170.1,138.8,168.2,145.7,162.8,148.8z"/>
<path d="M21.2,148.8L75.1,180c5.4,3.1,12.3,1.3,15.4-4.1l0.7-1.3c3.1-5.4,1.3-12.3-4.1-15.4L33.3,128c-5.4-3.1-12.3-1.3-15.4,4.1
	l-0.7,1.3C14,138.8,15.8,145.7,21.2,148.8z"/>
<path d="M159.2,302.6l-53.9-31.1c-5.4-3.1-12.3-1.3-15.4,4.1l-0.7,1.3c-3.1,5.4-1.3,12.3,4.1,15.4l53.9,31.1
	c5.4,3.1,12.3,1.3,15.4-4.1l0.7-1.3C166.4,312.7,164.6,305.8,159.2,302.6z"/>
<path d="M17.6,302.6l53.9-31.1c5.4-3.1,12.3-1.3,15.4,4.1l0.7,1.3c3.1,5.4,1.3,12.3-4.1,15.4l-53.9,31.1c-5.4,3.1-12.3,1.3-15.4-4.1
	l-0.7-1.3C10.3,312.7,12.2,305.8,17.6,302.6z"/>
<ellipse class="st0" cx="91.9" cy="67.7" rx="39.9" ry="47.7"/>
<ellipse class="st1" cx="68.7" cy="63.7" rx="6.2" ry="13.5"/>
<ellipse class="st1" cx="111.8" cy="63.7" rx="6.2" ry="13.5"/>
</svg>
